# xmcd
#
# Track frame offsets: 
#        182
#        9672
#        17127
#        25500
#        35632
#        42382
#        49827
#        58850
#        68270
#        76522
#        84470
#        91262
#        100510
#        110052
#        119317
#        132082
#        140092
#        150042
#        158980
#        165135
#        177560
#        183357
#        197960
#        206602
#        215115
#        224070
#        232970
#        240532
#        248392
#
# Disc length: 3442 seconds
#
# Revision: 1
# Processed by: cddbd v1.4PL0 Copyright (c) Steve Scherf et al.
# Submitted via: ExactAudioCopy v0.90b4
#
DISCID=7d0d701d
DTITLE=Gene Autry - Sing Cowboy Sing (The Gene Autry Collection) - Dis
DTITLE=c 2
DYEAR=1997
DGENRE=Country
TTITLE0=Sioux City Sue
TTITLE1=Someday (You'll Want Me To Want You)
TTITLE2=Gonna Build A Big Fence Around Texas
TTITLE3=The Old Lamplighter
TTITLE4=San Fernando Valley
TTITLE5=I'm A Fool To Care
TTITLE6=Goodbye Little Darling Goodbye
TTITLE7=You Can't See The Sun When You're Crying
TTITLE8=I Tipped My Hat And Slowly Rode Away
TTITLE9=The Angel Song
TTITLE10=One Hundred And Sixty Acres
TTITLE11=At Sundown
TTITLE12=It Happened In Monterey
TTITLE13=It Make No Difference Now
TTITLE14=The Singing Hills
TTITLE15=You Laughed And I Cried
TTITLE16=Pretty Mary
TTITLE17=Mexicali Rose
TTITLE18=Wave To Me My Lady
TTITLE19=Let The Rest Of The World Go By
TTITLE20=Honey, I'm In Love With You (The Honey Song)
TTITLE21=Ole Faithful
TTITLE22=Here Comes Santa Claus
TTITLE23=You Are My Sunshine
TTITLE24=Buttons And Bows
TTITLE25=Blue Eyes Crying In The Rain
TTITLE26=Shame On You
TTITLE27=While The Angelus Was Ringing
TTITLE28=Under Fiesta Stars
EXTD=
EXTT0=
EXTT1=
EXTT2=
EXTT3=
EXTT4=
EXTT5=
EXTT6=
EXTT7=
EXTT8=
EXTT9=
EXTT10=
EXTT11=
EXTT12=
EXTT13=
EXTT14=
EXTT15=
EXTT16=
EXTT17=
EXTT18=
EXTT19=
EXTT20=
EXTT21=
EXTT22=
EXTT23=
EXTT24=
EXTT25=
EXTT26=
EXTT27=
EXTT28=
PLAYORDER=
